# xmcd
#
# Track frame offsets:
#	182
#	14467
#	19542
#	33040
#	49355
#	64652
#	88657
#	107320
#	120095
#	132262
#	145400
#	158352
#	171695
#	187012
#	199340
#	213435
#	228842
#	241960
#	258492
#	273985
#	289622
#	306285
#
# Disc length: 4258 seconds
#
# Revision: 5
# Processed by: cddbd v1.5.2PL0 Copyright (c) Steve Scherf et al.
# Submitted via: audiograbber 1.83.01
#
DISCID=3010a016
DTITLE=Sounds of the South  - Sounds of the South - Disc 2 (Roots of the Blues/
DTITLE=The Blues Roll On)
DYEAR=1993
DGENRE=Folk
TTITLE0=Lonnie Young, Ed Young and Lonnie Young Jr. - Jim and John 
TTITLE1=Vera Hall - The Wild Ox Moan
TTITLE2=Mississippi Fred McDowell - Been Drinkin' Water Out of a Hollow Log
TTITLE3=Miles and Bob Pratcher - All Night Long
TTITLE4=Mississippi Fred McDowell, Miles Pratcher and Fannie Davis - Shake 'em On
TTITLE4=Down
TTITLE5=Forrest City Joe - Levee Camp Remiscence
TTITLE6=Lonnie Young, Ed Young and Lonnie Young Jr. - Chevrolet
TTITLE7=Johnny Lee Moore - Levee Camp Holler
TTITLE8=Johnny Lee Moore and 12 Mississippi Penitentiary Convicts) - Eighteen Ham
TTITLE8=mers
TTITLE9=Forrest City Joe, Sonny Boy Rogers and Thomas Martin - Drink On Little Gi
TTITLE9=rl
TTITLE10=Mississippi Fred McDowell - Drop Down Mama 
TTITLE11=Boy Blue, Willie Jones and Joe Lee - Boogie Children
TTITLE12=Forrest City Joe, Sonny Boy Rogers and Thomas Martin - She  Lived Her Li
TTITLE12=fe Too Fast
TTITLE13=Lonnie Young, Ed Young and Lonnie Young Jr. - Sittin' On Top of the Worl
TTITLE13=d
TTITLE14=John Dudley - Cool Water Blues
TTITLE15=Forrest City Joe, Sonny Boy Rogers and Thomas Martin - She Don't Love Me
TTITLE15=That Way 
TTITLE16=Forrest City Joe, Sonny Boy Rogers and Thomas Martin - Stop Breaking Dow
TTITLE16=n
TTITLE17=Boy Blue, Willie Jones and Joe Lee - Joe Lee's Rock
TTITLE18=Rosalie Hill - Bullyin' Well
TTITLE19=Mississippi Fred McDowell - When You Get Home, Write Me a Few Little L
TTITLE19=ines
TTITLE20=Forrest City Joe - Red Cross Store
TTITLE21=Forrest City Joe, Sonny Boy Rogers and Thomas Martin) - Forrest City Jum
TTITLE21=p
EXTD=YEAR: 1993
EXTT0=
EXTT1=
EXTT2=
EXTT3=
EXTT4=
EXTT5=
EXTT6=
EXTT7=
EXTT8=
EXTT9=
EXTT10=
EXTT11=
EXTT12=
EXTT13=
EXTT14=
EXTT15=
EXTT16=
EXTT17=
EXTT18=
EXTT19=
EXTT20=
EXTT21=
PLAYORDER=
